<svg xmlns="http://www.w3.org/2000/svg" viewBox="0 0 1398.64 399.58"><defs><style>.cls-1{fill:#fff;}</style></defs><g id="Ebene_2" data-name="Ebene 2"><g id="Ebene_1-2" data-name="Ebene 1"><g id="Layer_2" data-name="Layer 2"><g id="Layer_1-2" data-name="Layer 1-2"><path class="cls-1" d="M377.72,150.79A192.19,192.19,0,0,0,192,7.79H0v384H192c106.18-.14,192.14-86.32,192-192.5A192.19,192.19,0,0,0,377.72,150.79ZM157.67,234.12a48.52,48.52,0,0,0,68.62,0l0,0c.69-.69,1.35-1.39,2-2.11A48.4,48.4,0,0,0,238,215.24H352.37a166.6,166.6,0,0,1-2.5,16.77,159.09,159.09,0,0,1-4.38,16.78c-20.78,65-81.73,112.1-153.49,112.1H30.9V215.24H69.31a123.75,123.75,0,0,0,236.35,33.55H263.48a86.52,86.52,0,1,1,0-98h42.18A123.7,123.7,0,0,0,69.31,184.34H30.9V38.69H192c71.76,0,132.71,47.15,153.49,112.11a158.28,158.28,0,0,1,4.38,16.77,166.18,166.18,0,0,1,2.5,16.77H238a48.19,48.19,0,0,0-9.72-16.77c-.64-.72-1.3-1.42-2-2.11a48.55,48.55,0,0,0-68.66,68.66Z"/></g></g><path class="cls-1" d="M602.45,15A184.79,184.79,0,0,1,733.12,330.45,184.79,184.79,0,1,1,471.79,69.12,183.57,183.57,0,0,1,602.45,15m0-15C492.11,0,402.66,89.45,402.66,199.79s89.45,199.79,199.79,199.79,199.79-89.45,199.79-199.79S712.79,0,602.45,0Z"/><polygon class="cls-1" points="1113.78 7.79 1113.78 7.79 1121.28 7.79 1113.78 7.79 1113.78 369.55 838.42 7.79 821.49 7.79 821.49 391.79 828.99 391.79 836.49 391.79 836.49 30.02 1111.85 391.79 1128.78 391.79 1128.78 7.79 1113.78 7.79"/><polygon class="cls-1" points="1165.56 22.79 1165.56 192.29 1312.84 192.29 1312.84 207.29 1165.56 207.29 1165.56 376.79 1398.64 376.79 1398.64 391.79 1150.56 391.79 1150.56 7.79 1398.64 7.79 1398.64 22.79 1165.56 22.79"/></g></g></svg>