<svg xmlns="http://www.w3.org/2000/svg" viewBox="0 0 1379.66 384"><defs><style>.cls-1{fill:#fff;}.cls-2{fill:none;}</style></defs><g id="Ebene_2" data-name="Ebene 2"><g id="Ebene_1-2" data-name="Ebene 1"><g id="Layer_2" data-name="Layer 2"><g id="Layer_1-2" data-name="Layer 1-2"><path class="cls-1" d="M377.72,143A192.18,192.18,0,0,0,192,0H0V384H192c106.18-.13,192.14-86.32,192-192.49A192.33,192.33,0,0,0,377.72,143ZM157.67,226.33a48.53,48.53,0,0,0,68.62,0l0,0c.69-.69,1.35-1.39,2-2.11A48.31,48.31,0,0,0,238,207.45H352.37a163.38,163.38,0,0,1-2.5,16.77A156.69,156.69,0,0,1,345.49,241C324.71,306,263.76,353.1,192,353.1H30.9V207.45H69.31A123.75,123.75,0,0,0,305.66,241H263.48a86.5,86.5,0,1,1,0-98h42.18A123.7,123.7,0,0,0,69.31,176.55H30.9V30.9H192c71.76,0,132.71,47.15,153.49,112.11a157.13,157.13,0,0,1,4.38,16.77,163.79,163.79,0,0,1,2.5,16.77H238a48.28,48.28,0,0,0-9.72-16.77c-.64-.72-1.3-1.42-2-2.11a48.55,48.55,0,0,0-68.66,68.66Z"/></g></g><path class="cls-1" d="M600.45,15A177,177,0,0,1,725.6,317.16,177,177,0,0,1,475.29,66.85,175.81,175.81,0,0,1,600.45,15m0-15c-106,0-192,86-192,192s86,192,192,192,192-86,192-192-86-192-192-192Z"/><polygon class="cls-1" points="1122.79 0 1122.79 384 1105.86 384 830.5 22.24 830.5 384 815.5 384 815.5 0 832.43 0 1107.79 361.77 1107.79 0 1122.79 0"/><polygon class="cls-1" points="1163.54 15 1163.54 184.5 1310.82 184.5 1310.82 199.5 1163.54 199.5 1163.54 369 1379.66 369 1379.66 384 1148.54 384 1148.54 0 1379.66 0 1379.66 15 1163.54 15"/><rect class="cls-2" width="1148.54" height="384"/><polygon class="cls-2" points="1379.66 15 1379.66 369 1163.54 369 1163.54 199.5 1310.82 199.5 1310.82 184.5 1163.54 184.5 1163.54 15 1379.66 15"/></g></g></svg>