<svg xmlns="http://www.w3.org/2000/svg" viewBox="0 0 2169.71 589.26"><defs><style>.cls-1{fill:#fff;}</style></defs><g id="Ebene_2" data-name="Ebene 2"><g id="Ebene_1-2" data-name="Ebene 1"><g id="Layer_2" data-name="Layer 2"><g id="Layer_1-2" data-name="Layer 1-2"><path class="cls-1" d="M579.63,219.44A294.92,294.92,0,0,0,294.63,0H0V589.26H294.63c162.93-.21,294.85-132.46,294.64-295.39A294.9,294.9,0,0,0,579.63,219.44ZM242,347.31a74.45,74.45,0,0,0,105.3.07l.06-.07c1.06-1.06,2.07-2.13,3.07-3.24a74.09,74.09,0,0,0,14.84-25.73h175.5a250.55,250.55,0,0,1-3.83,25.73,245.33,245.33,0,0,1-6.72,25.75c-31.89,99.75-125.42,172-235.54,172H47.42V318.34h58.94c13.2,104,108.24,177.69,212.28,164.5a189.9,189.9,0,0,0,150.41-113H404.32a132.76,132.76,0,1,1,0-150.38h64.73C427.58,123.15,315.9,78.72,219.62,120.19A189.82,189.82,0,0,0,106.36,270.92H47.42V47.42H294.63c110.12,0,203.65,72.35,235.54,172a245.15,245.15,0,0,1,6.72,25.74,251,251,0,0,1,3.83,25.73H365.22a74,74,0,0,0-14.92-25.73c-1-1.11-2-2.18-3.06-3.24A74.5,74.5,0,0,0,241.87,347.31Z"/></g></g><path class="cls-1" d="M646.08,424.9a8.18,8.18,0,0,1-2.28-6.06V170.59a8.85,8.85,0,0,1,2.28-6.25,7.85,7.85,0,0,1,6.06-2.47H800a7.93,7.93,0,0,1,8.72,8.72v5.69a7.86,7.86,0,0,1-2.47,6.06,8.84,8.84,0,0,1-6.25,2.27H667.68v96.65H791.61a7.92,7.92,0,0,1,8.72,8.72v5.68a7.85,7.85,0,0,1-2.47,6.07,8.88,8.88,0,0,1-6.25,2.27H667.68V404.43H803a7.93,7.93,0,0,1,8.72,8.72v5.69a7.83,7.83,0,0,1-2.47,6.06,8.84,8.84,0,0,1-6.25,2.27H652.14A8.15,8.15,0,0,1,646.08,424.9Z"/><path class="cls-1" d="M848.5,424.9a8.18,8.18,0,0,1-2.28-6.06V170.21a7.84,7.84,0,0,1,8.34-8.34h7.2a7.83,7.83,0,0,1,8.34,8.34V418.84a7.81,7.81,0,0,1-8.34,8.33h-7.2A8.15,8.15,0,0,1,848.5,424.9Z"/><path class="cls-1" d="M912.7,424.9a8.18,8.18,0,0,1-2.28-6.06V170.59a8.85,8.85,0,0,1,2.28-6.25,7.85,7.85,0,0,1,6.06-2.47h8a9.22,9.22,0,0,1,8,4.55l139.85,213.76V170.59a8.88,8.88,0,0,1,2.27-6.25,7.88,7.88,0,0,1,6.07-2.47h6.82a7.93,7.93,0,0,1,8.72,8.72V418.46a8.83,8.83,0,0,1-2.28,6.25,7.82,7.82,0,0,1-6.06,2.46h-8.34a9.19,9.19,0,0,1-8-4.54l-139.47-213V418.84a7.85,7.85,0,0,1-2.46,6.06,8.86,8.86,0,0,1-6.26,2.27h-6.82A8.15,8.15,0,0,1,912.7,424.9Z"/><path class="cls-1" d="M1128.23,424.9a7.29,7.29,0,0,1-2.27-5.31l.76-4.16,95.88-246q3-7.57,11-7.58h12.89q7.95,0,11,7.58l95.89,246,.75,4.16a7.76,7.76,0,0,1-7.58,7.58H1339a7.82,7.82,0,0,1-5.5-1.89,10.47,10.47,0,0,1-2.84-3.79l-23.5-60.64H1173l-23.49,60.64a10.63,10.63,0,0,1-2.85,3.79,7.81,7.81,0,0,1-5.49,1.89h-7.58A7.25,7.25,0,0,1,1128.23,424.9ZM1298,338.11l-58-149.33-58,149.33Z"/><path class="cls-1" d="M1382,424.9a8.21,8.21,0,0,1-2.27-6.06V170.59a8.88,8.88,0,0,1,2.27-6.25,7.88,7.88,0,0,1,6.07-2.47h6.82a7.93,7.93,0,0,1,8.72,8.72v98.54l114.83-101.57a47.05,47.05,0,0,1,6.26-4,17.25,17.25,0,0,1,8.15-1.71H1539a7.78,7.78,0,0,1,7.58,7.58,6.66,6.66,0,0,1-1.89,4.93L1416.15,288.84,1552.6,414.29a7.58,7.58,0,0,1-5.31,12.88h-6.44a17.25,17.25,0,0,1-8.15-1.7,47.05,47.05,0,0,1-6.26-4L1403.65,309.31V418.84a7.86,7.86,0,0,1-2.47,6.06,8.84,8.84,0,0,1-6.25,2.27h-6.82A8.19,8.19,0,0,1,1382,424.9Z"/><path class="cls-1" d="M1653.1,424.9a8.21,8.21,0,0,1-2.27-6.06V184.61h-75a7.81,7.81,0,0,1-8.34-8.33v-5.69a8.88,8.88,0,0,1,2.27-6.25,7.88,7.88,0,0,1,6.07-2.47h173.58a7.93,7.93,0,0,1,8.72,8.72v5.69a7.86,7.86,0,0,1-2.47,6.06,8.84,8.84,0,0,1-6.25,2.27h-74.66V418.84a7.86,7.86,0,0,1-2.47,6.06,8.84,8.84,0,0,1-6.25,2.27h-6.82A8.19,8.19,0,0,1,1653.1,424.9Z"/><path class="cls-1" d="M1784.61,424.9a8.21,8.21,0,0,1-2.27-6.06V170.59a8.88,8.88,0,0,1,2.27-6.25,7.88,7.88,0,0,1,6.07-2.47h147.81a7.93,7.93,0,0,1,8.72,8.72v5.69a7.86,7.86,0,0,1-2.47,6.06,8.84,8.84,0,0,1-6.25,2.27H1806.22v96.65h123.93a7.92,7.92,0,0,1,8.72,8.72v5.68a7.88,7.88,0,0,1-2.47,6.07,8.88,8.88,0,0,1-6.25,2.27H1806.22V404.43h135.3a7.93,7.93,0,0,1,8.72,8.72v5.69a7.86,7.86,0,0,1-2.47,6.06,8.84,8.84,0,0,1-6.25,2.27H1790.68A8.19,8.19,0,0,1,1784.61,424.9Z"/><path class="cls-1" d="M1983.25,424.9a8.18,8.18,0,0,1-2.28-6.06V170.59a8.85,8.85,0,0,1,2.28-6.25,7.85,7.85,0,0,1,6.06-2.47h88.31q40.93,0,64.05,19.33t23.12,57.23q0,30-14.78,48.33t-42.45,24.82l61,103.85a9.35,9.35,0,0,1,1.13,4.16,7.76,7.76,0,0,1-7.58,7.58h-4.54c-3.79,0-6.64-.81-8.53-2.46a29.87,29.87,0,0,1-5.88-7.77L2082.92,315h-78.07V418.84a7.85,7.85,0,0,1-2.46,6.06,8.88,8.88,0,0,1-6.26,2.27h-6.82A8.15,8.15,0,0,1,1983.25,424.9Zm92.47-132.65q33,0,49.08-13.45t16.11-40.37q0-26.9-16.11-40.36t-49.08-13.46h-70.87V292.25Z"/></g></g></svg>