<?xml version="1.0" encoding="UTF-8" standalone="no"?>
<!DOCTYPE svg PUBLIC "-//W3C//DTD SVG 1.1//EN" "http://www.w3.org/Graphics/SVG/1.1/DTD/svg11.dtd">
<svg width="100%" height="100%" viewBox="0 0 588 391" version="1.1" xmlns="http://www.w3.org/2000/svg" xmlns:xlink="http://www.w3.org/1999/xlink" xml:space="preserve" xmlns:serif="http://www.serif.com/" style="fill-rule:evenodd;clip-rule:evenodd;stroke-linejoin:round;stroke-miterlimit:2;">
    <g id="ArtBoard1" transform="matrix(1,0,0,1,-123.029,-99.4945)">
        <rect x="123.029" y="99.495" width="587.633" height="390.271" style="fill:none;"/>
        <clipPath id="_clip1">
            <rect x="123.029" y="99.495" width="587.633" height="390.271"/>
        </clipPath>
        <g clip-path="url(#_clip1)">
            <g id="Ebene_2" transform="matrix(1,0,0,1,0.0293923,0.494521)">
                <g transform="matrix(0.826662,0,0,0.881413,44.8984,50.2902)">
                    <path d="M805.364,120.142C805.364,84.644 774.636,55.824 736.787,55.824L163.091,55.824C125.242,55.824 94.514,84.644 94.514,120.142L94.514,434.285C94.514,469.783 125.242,498.603 163.091,498.603L736.787,498.603C774.636,498.603 805.364,469.783 805.364,434.285L805.364,120.142Z"/>
                </g>
                <g id="Ebene_1-2" transform="matrix(1.10672,0,0,1.10672,-543.618,-31.4287)">
                    <path d="M646.08,424.9C644.52,423.28 643.694,421.087 643.8,418.84L643.8,170.59C643.718,168.29 644.537,166.047 646.08,164.34C647.643,162.675 649.858,161.772 652.14,161.87L800,161.87C800.277,161.841 800.555,161.826 800.834,161.826C805.184,161.826 808.764,165.406 808.764,169.756C808.764,170.035 808.749,170.313 808.72,170.59L808.72,176.28C808.817,178.562 807.914,180.776 806.25,182.34C804.542,183.881 802.299,184.696 800,184.61L667.68,184.61L667.68,281.26L791.61,281.26C791.891,281.23 792.173,281.215 792.455,281.215C796.8,281.215 800.375,284.79 800.375,289.135C800.375,289.417 800.36,289.699 800.33,289.98L800.33,295.66C800.431,297.945 799.528,300.164 797.86,301.73C796.15,303.267 793.908,304.081 791.61,304L667.68,304L667.68,404.43L803,404.43C803.277,404.401 803.555,404.386 803.834,404.386C808.184,404.386 811.764,407.966 811.764,412.316C811.764,412.595 811.749,412.873 811.72,413.15L811.72,418.84C811.821,421.122 810.918,423.338 809.25,424.9C807.542,426.441 805.299,427.256 803,427.17L652.14,427.17C649.894,427.282 647.699,426.46 646.08,424.9Z" style="fill:white;fill-rule:nonzero;"/>
                    <path d="M848.5,424.9C846.94,423.28 846.114,421.087 846.22,418.84L846.22,170.21C846.209,170.038 846.203,169.865 846.203,169.693C846.203,165.392 849.742,161.853 854.043,161.853C854.215,161.853 854.388,161.859 854.56,161.87L861.76,161.87C861.936,161.858 862.112,161.852 862.288,161.852C866.583,161.852 870.118,165.387 870.118,169.682C870.118,169.858 870.112,170.034 870.1,170.21L870.1,418.84C870.112,419.019 870.119,419.199 870.119,419.379C870.119,423.664 866.593,427.189 862.309,427.189C862.126,427.189 861.943,427.183 861.76,427.17L854.56,427.17C852.314,427.282 850.119,426.46 848.5,424.9Z" style="fill:white;fill-rule:nonzero;"/>
                    <path d="M912.7,424.9C911.14,423.28 910.314,421.087 910.42,418.84L910.42,170.59C910.338,168.29 911.157,166.047 912.7,164.34C914.263,162.675 916.478,161.772 918.76,161.87L926.76,161.87C930.043,161.852 933.097,163.589 934.76,166.42L1074.61,380.18L1074.61,170.59C1074.53,168.292 1075.34,166.05 1076.88,164.34C1078.45,162.675 1080.66,161.773 1082.95,161.87L1089.77,161.87C1090.05,161.841 1090.33,161.826 1090.6,161.826C1094.95,161.826 1098.53,165.406 1098.53,169.756C1098.53,170.035 1098.52,170.313 1098.49,170.59L1098.49,418.46C1098.57,420.76 1097.76,423.004 1096.21,424.71C1094.65,426.375 1092.43,427.275 1090.15,427.17L1081.81,427.17C1078.53,427.196 1075.47,425.461 1073.81,422.63L934.34,209.63L934.34,418.84C934.441,421.12 933.542,423.335 931.88,424.9C930.168,426.441 927.922,427.256 925.62,427.17L918.8,427.17C916.541,427.293 914.329,426.47 912.7,424.9Z" style="fill:white;fill-rule:nonzero;"/>
                </g>
            </g>
        </g>
    </g>
</svg>
